<mxfile host="app.diagrams.net" modified="2022-08-10T12:29:49.528Z" agent="5.0 (Windows NT 10.0; Win64; x64) AppleWebKit/537.36 (KHTML, like Gecko) Chrome/103.0.5060.134 Safari/537.36 Edg/103.0.1264.77" etag="9P3RQleeZNa_BgKs8k7G" version="20.2.3" type="github">
  <diagram id="7cEVjkuyd69wSvIsZOjo" name="第 1 页">
    <mxGraphModel dx="1422" dy="761" grid="1" gridSize="10" guides="1" tooltips="1" connect="1" arrows="1" fold="1" page="1" pageScale="1" pageWidth="827" pageHeight="1169" math="0" shadow="0">
      <root>
        <mxCell id="0" />
        <mxCell id="1" parent="0" />
        <mxCell id="RQ_K_bz_6__OssRJ5V39-1" value="CA" style="rounded=1;whiteSpace=wrap;html=1;fillColor=#FFFFFF;strokeColor=#000000;fontSize=13;" vertex="1" parent="1">
          <mxGeometry x="187" y="200" width="50" height="30" as="geometry" />
        </mxCell>
        <mxCell id="RQ_K_bz_6__OssRJ5V39-2" style="edgeStyle=orthogonalEdgeStyle;rounded=0;orthogonalLoop=1;jettySize=auto;html=1;exitX=1;exitY=0.5;exitDx=0;exitDy=0;entryX=0;entryY=0.5;entryDx=0;entryDy=0;fontFamily=Helvetica;" edge="1" parent="1" source="RQ_K_bz_6__OssRJ5V39-3" target="RQ_K_bz_6__OssRJ5V39-7">
          <mxGeometry relative="1" as="geometry" />
        </mxCell>
        <mxCell id="RQ_K_bz_6__OssRJ5V39-3" value="&lt;font color=&quot;#000000&quot;&gt;=&lt;/font&gt;" style="text;html=1;strokeColor=none;fillColor=none;align=center;verticalAlign=middle;whiteSpace=wrap;rounded=0;shadow=0;dashed=1;fontSize=15;fontColor=#00994D;" vertex="1" parent="1">
          <mxGeometry x="237" y="200" width="20" height="30" as="geometry" />
        </mxCell>
        <mxCell id="RQ_K_bz_6__OssRJ5V39-4" style="edgeStyle=orthogonalEdgeStyle;rounded=0;orthogonalLoop=1;jettySize=auto;html=1;exitX=1;exitY=0.5;exitDx=0;exitDy=0;entryX=0;entryY=0.5;entryDx=0;entryDy=0;" edge="1" parent="1" source="RQ_K_bz_6__OssRJ5V39-7" target="RQ_K_bz_6__OssRJ5V39-9">
          <mxGeometry relative="1" as="geometry">
            <Array as="points">
              <mxPoint x="360" y="217" />
              <mxPoint x="360" y="175" />
            </Array>
          </mxGeometry>
        </mxCell>
        <mxCell id="RQ_K_bz_6__OssRJ5V39-5" style="edgeStyle=orthogonalEdgeStyle;rounded=0;orthogonalLoop=1;jettySize=auto;html=1;exitX=1;exitY=0.5;exitDx=0;exitDy=0;entryX=0;entryY=0.5;entryDx=0;entryDy=0;" edge="1" parent="1" source="RQ_K_bz_6__OssRJ5V39-7" target="RQ_K_bz_6__OssRJ5V39-11">
          <mxGeometry relative="1" as="geometry">
            <Array as="points">
              <mxPoint x="360" y="217" />
              <mxPoint x="360" y="255" />
            </Array>
          </mxGeometry>
        </mxCell>
        <mxCell id="RQ_K_bz_6__OssRJ5V39-6" style="edgeStyle=orthogonalEdgeStyle;rounded=0;orthogonalLoop=1;jettySize=auto;html=1;exitX=0.5;exitY=1;exitDx=0;exitDy=0;entryX=0.5;entryY=0;entryDx=0;entryDy=0;fontFamily=Helvetica;" edge="1" parent="1" source="RQ_K_bz_6__OssRJ5V39-7" target="RQ_K_bz_6__OssRJ5V39-25">
          <mxGeometry relative="1" as="geometry" />
        </mxCell>
        <mxCell id="RQ_K_bz_6__OssRJ5V39-7" value="Residual" style="rounded=1;whiteSpace=wrap;html=1;fillColor=#d5e8d4;strokeColor=#82b366;fontSize=13;" vertex="1" parent="1">
          <mxGeometry x="275" y="200" width="60" height="30" as="geometry" />
        </mxCell>
        <mxCell id="RQ_K_bz_6__OssRJ5V39-8" style="edgeStyle=orthogonalEdgeStyle;rounded=0;orthogonalLoop=1;jettySize=auto;html=1;exitX=1;exitY=0.5;exitDx=0;exitDy=0;entryX=0;entryY=0.5;entryDx=0;entryDy=0;" edge="1" parent="1" source="RQ_K_bz_6__OssRJ5V39-9">
          <mxGeometry relative="1" as="geometry">
            <mxPoint x="489.99999999999955" y="215" as="targetPoint" />
            <Array as="points">
              <mxPoint x="470" y="175" />
              <mxPoint x="470" y="215" />
            </Array>
          </mxGeometry>
        </mxCell>
        <mxCell id="RQ_K_bz_6__OssRJ5V39-9" value="X Avg Pool" style="rounded=1;whiteSpace=wrap;html=1;fillColor=#ffe6cc;strokeColor=#d79b00;" vertex="1" parent="1">
          <mxGeometry x="380" y="160" width="80" height="30" as="geometry" />
        </mxCell>
        <mxCell id="RQ_K_bz_6__OssRJ5V39-10" style="edgeStyle=orthogonalEdgeStyle;rounded=0;orthogonalLoop=1;jettySize=auto;html=1;exitX=1;exitY=0.5;exitDx=0;exitDy=0;entryX=0;entryY=0.5;entryDx=0;entryDy=0;" edge="1" parent="1" source="RQ_K_bz_6__OssRJ5V39-11" target="RQ_K_bz_6__OssRJ5V39-36">
          <mxGeometry relative="1" as="geometry">
            <mxPoint x="490" y="215" as="targetPoint" />
            <Array as="points">
              <mxPoint x="470" y="255" />
              <mxPoint x="470" y="215" />
            </Array>
          </mxGeometry>
        </mxCell>
        <mxCell id="RQ_K_bz_6__OssRJ5V39-11" value="Y Avg Pool" style="rounded=1;whiteSpace=wrap;html=1;fillColor=#ffe6cc;strokeColor=#d79b00;" vertex="1" parent="1">
          <mxGeometry x="380" y="240" width="80" height="30" as="geometry" />
        </mxCell>
        <mxCell id="RQ_K_bz_6__OssRJ5V39-12" style="edgeStyle=orthogonalEdgeStyle;rounded=0;orthogonalLoop=1;jettySize=auto;html=1;exitX=1;exitY=0.5;exitDx=0;exitDy=0;fontFamily=Helvetica;entryX=1;entryY=0.5;entryDx=0;entryDy=0;" edge="1" parent="1" source="RQ_K_bz_6__OssRJ5V39-13" target="RQ_K_bz_6__OssRJ5V39-14">
          <mxGeometry relative="1" as="geometry" />
        </mxCell>
        <mxCell id="RQ_K_bz_6__OssRJ5V39-13" value="Conv2d" style="rounded=1;whiteSpace=wrap;html=1;fillColor=#66CC00;strokeColor=#000000;" vertex="1" parent="1">
          <mxGeometry x="570" y="200" width="50" height="30" as="geometry" />
        </mxCell>
        <mxCell id="RQ_K_bz_6__OssRJ5V39-14" value="&lt;font color=&quot;#000000&quot;&gt;BN&lt;/font&gt;" style="rounded=1;whiteSpace=wrap;html=1;fillColor=#007FFF;strokeColor=#000000;fontColor=#ffffff;" vertex="1" parent="1">
          <mxGeometry x="570" y="354" width="50" height="30" as="geometry" />
        </mxCell>
        <mxCell id="RQ_K_bz_6__OssRJ5V39-15" style="edgeStyle=orthogonalEdgeStyle;rounded=0;orthogonalLoop=1;jettySize=auto;html=1;exitX=0;exitY=0.5;exitDx=0;exitDy=0;fontFamily=Helvetica;entryX=1;entryY=0.5;entryDx=0;entryDy=0;" edge="1" parent="1" source="RQ_K_bz_6__OssRJ5V39-17" target="RQ_K_bz_6__OssRJ5V39-18">
          <mxGeometry relative="1" as="geometry">
            <mxPoint x="475" y="357" as="sourcePoint" />
            <mxPoint x="480" y="312" as="targetPoint" />
            <Array as="points">
              <mxPoint x="480" y="369" />
              <mxPoint x="480" y="328" />
            </Array>
          </mxGeometry>
        </mxCell>
        <mxCell id="RQ_K_bz_6__OssRJ5V39-16" style="edgeStyle=orthogonalEdgeStyle;rounded=0;orthogonalLoop=1;jettySize=auto;html=1;exitX=0;exitY=0.5;exitDx=0;exitDy=0;entryX=1;entryY=0.5;entryDx=0;entryDy=0;fontFamily=Helvetica;" edge="1" parent="1" source="RQ_K_bz_6__OssRJ5V39-17" target="RQ_K_bz_6__OssRJ5V39-19">
          <mxGeometry relative="1" as="geometry">
            <Array as="points">
              <mxPoint x="480" y="369" />
              <mxPoint x="480" y="405" />
            </Array>
          </mxGeometry>
        </mxCell>
        <mxCell id="RQ_K_bz_6__OssRJ5V39-17" value="&lt;font color=&quot;#000000&quot;&gt;Non-linear&lt;/font&gt;" style="rounded=1;whiteSpace=wrap;html=1;fillColor=#e1d5e7;strokeColor=#9673a6;" vertex="1" parent="1">
          <mxGeometry x="490" y="354" width="80" height="30" as="geometry" />
        </mxCell>
        <mxCell id="RQ_K_bz_6__OssRJ5V39-18" value="Conv2d" style="rounded=1;whiteSpace=wrap;html=1;fillColor=#66CC00;strokeColor=#000000;" vertex="1" parent="1">
          <mxGeometry x="410" y="313" width="50" height="30" as="geometry" />
        </mxCell>
        <mxCell id="RQ_K_bz_6__OssRJ5V39-19" value="Conv2d" style="rounded=1;whiteSpace=wrap;html=1;fillColor=#66CC00;strokeColor=#000000;" vertex="1" parent="1">
          <mxGeometry x="410" y="390" width="50" height="30" as="geometry" />
        </mxCell>
        <mxCell id="RQ_K_bz_6__OssRJ5V39-20" style="edgeStyle=orthogonalEdgeStyle;rounded=0;orthogonalLoop=1;jettySize=auto;html=1;exitX=0;exitY=0.5;exitDx=0;exitDy=0;entryX=1;entryY=0.5;entryDx=0;entryDy=0;fontFamily=Helvetica;" edge="1" parent="1" source="RQ_K_bz_6__OssRJ5V39-21" target="RQ_K_bz_6__OssRJ5V39-25">
          <mxGeometry relative="1" as="geometry">
            <mxPoint x="338" y="368.9999999999999" as="targetPoint" />
            <Array as="points">
              <mxPoint x="360" y="327" />
              <mxPoint x="353" y="327" />
              <mxPoint x="353" y="369" />
            </Array>
          </mxGeometry>
        </mxCell>
        <mxCell id="RQ_K_bz_6__OssRJ5V39-21" value="Sigmoid" style="rounded=1;whiteSpace=wrap;html=1;fillColor=#f8cecc;strokeColor=#b85450;" vertex="1" parent="1">
          <mxGeometry x="360" y="314" width="50" height="30" as="geometry" />
        </mxCell>
        <mxCell id="RQ_K_bz_6__OssRJ5V39-22" style="edgeStyle=orthogonalEdgeStyle;rounded=0;orthogonalLoop=1;jettySize=auto;html=1;exitX=0;exitY=0.5;exitDx=0;exitDy=0;entryX=1;entryY=0.5;entryDx=0;entryDy=0;fontFamily=Helvetica;" edge="1" parent="1" source="RQ_K_bz_6__OssRJ5V39-23" target="RQ_K_bz_6__OssRJ5V39-25">
          <mxGeometry relative="1" as="geometry">
            <mxPoint x="338" y="368.9999999999999" as="targetPoint" />
            <Array as="points">
              <mxPoint x="360" y="405" />
              <mxPoint x="353" y="405" />
              <mxPoint x="353" y="369" />
            </Array>
          </mxGeometry>
        </mxCell>
        <mxCell id="RQ_K_bz_6__OssRJ5V39-23" value="Sigmoid" style="rounded=1;whiteSpace=wrap;html=1;fillColor=#f8cecc;strokeColor=#b85450;" vertex="1" parent="1">
          <mxGeometry x="360" y="392" width="50" height="30" as="geometry" />
        </mxCell>
        <mxCell id="RQ_K_bz_6__OssRJ5V39-24" style="edgeStyle=orthogonalEdgeStyle;rounded=0;orthogonalLoop=1;jettySize=auto;html=1;exitX=0;exitY=0.5;exitDx=0;exitDy=0;fontFamily=Helvetica;" edge="1" parent="1" source="RQ_K_bz_6__OssRJ5V39-25">
          <mxGeometry relative="1" as="geometry">
            <mxPoint x="239.99999999999955" y="369.2857142857142" as="targetPoint" />
          </mxGeometry>
        </mxCell>
        <mxCell id="RQ_K_bz_6__OssRJ5V39-25" value="&lt;font color=&quot;#000000&quot;&gt;Re-weight&lt;/font&gt;" style="rounded=1;whiteSpace=wrap;html=1;fillColor=#EA6B66;strokeColor=#9673a6;" vertex="1" parent="1">
          <mxGeometry x="275" y="354" width="60" height="30" as="geometry" />
        </mxCell>
        <mxCell id="RQ_K_bz_6__OssRJ5V39-26" value="&lt;font color=&quot;#3399ff&quot;&gt;&lt;span style=&quot;font-size: 10px;&quot;&gt;C*H*W&lt;/span&gt;&lt;/font&gt;" style="text;html=1;strokeColor=none;fillColor=none;align=center;verticalAlign=middle;whiteSpace=wrap;rounded=0;shadow=0;dashed=1;fontColor=#F19C99;" vertex="1" parent="1">
          <mxGeometry x="295" y="180" width="50" height="22" as="geometry" />
        </mxCell>
        <mxCell id="RQ_K_bz_6__OssRJ5V39-27" value="&lt;font color=&quot;#3399ff&quot;&gt;&lt;span style=&quot;font-size: 10px;&quot;&gt;C*H*1&lt;/span&gt;&lt;/font&gt;" style="text;html=1;strokeColor=none;fillColor=none;align=center;verticalAlign=middle;whiteSpace=wrap;rounded=0;shadow=0;dashed=1;fontColor=#F19C99;" vertex="1" parent="1">
          <mxGeometry x="380" y="140" width="50" height="20" as="geometry" />
        </mxCell>
        <mxCell id="RQ_K_bz_6__OssRJ5V39-28" value="&lt;font color=&quot;#3399ff&quot;&gt;&lt;span style=&quot;font-size: 10px;&quot;&gt;C*1*W&lt;/span&gt;&lt;/font&gt;" style="text;html=1;strokeColor=none;fillColor=none;align=center;verticalAlign=middle;whiteSpace=wrap;rounded=0;shadow=0;dashed=1;fontColor=#F19C99;" vertex="1" parent="1">
          <mxGeometry x="387" y="270" width="43" height="20" as="geometry" />
        </mxCell>
        <mxCell id="RQ_K_bz_6__OssRJ5V39-29" value="&lt;font color=&quot;#3399ff&quot;&gt;&lt;span style=&quot;font-size: 10px;&quot;&gt;C/r *1*(W+H)&lt;/span&gt;&lt;/font&gt;" style="text;html=1;strokeColor=none;fillColor=none;align=center;verticalAlign=middle;whiteSpace=wrap;rounded=0;shadow=0;dashed=1;fontColor=#F19C99;" vertex="1" parent="1">
          <mxGeometry x="490" y="180" width="110" height="20" as="geometry" />
        </mxCell>
        <mxCell id="RQ_K_bz_6__OssRJ5V39-30" value="&lt;font color=&quot;#3399ff&quot;&gt;&lt;span style=&quot;font-size: 10px;&quot;&gt;C/r *1*(W+H)&lt;/span&gt;&lt;/font&gt;" style="text;html=1;strokeColor=none;fillColor=none;align=center;verticalAlign=middle;whiteSpace=wrap;rounded=0;shadow=0;dashed=1;fontColor=#F19C99;" vertex="1" parent="1">
          <mxGeometry x="490" y="334" width="110" height="20" as="geometry" />
        </mxCell>
        <mxCell id="RQ_K_bz_6__OssRJ5V39-31" value="&lt;font color=&quot;#3399ff&quot;&gt;&lt;span style=&quot;font-size: 10px;&quot;&gt;C*H*1&lt;/span&gt;&lt;/font&gt;" style="text;html=1;strokeColor=none;fillColor=none;align=center;verticalAlign=middle;whiteSpace=wrap;rounded=0;shadow=0;dashed=1;fontColor=#F19C99;" vertex="1" parent="1">
          <mxGeometry x="359.5" y="292" width="50" height="20" as="geometry" />
        </mxCell>
        <mxCell id="RQ_K_bz_6__OssRJ5V39-32" value="&lt;font color=&quot;#3399ff&quot;&gt;&lt;span style=&quot;font-size: 10px;&quot;&gt;C*H*1&lt;/span&gt;&lt;/font&gt;" style="text;html=1;strokeColor=none;fillColor=none;align=center;verticalAlign=middle;whiteSpace=wrap;rounded=0;shadow=0;dashed=1;fontColor=#F19C99;" vertex="1" parent="1">
          <mxGeometry x="410" y="292" width="50" height="20" as="geometry" />
        </mxCell>
        <mxCell id="RQ_K_bz_6__OssRJ5V39-33" value="&lt;font color=&quot;#3399ff&quot;&gt;&lt;span style=&quot;font-size: 10px;&quot;&gt;C*1*W&lt;/span&gt;&lt;/font&gt;" style="text;html=1;strokeColor=none;fillColor=none;align=center;verticalAlign=middle;whiteSpace=wrap;rounded=0;shadow=0;dashed=1;fontColor=#F19C99;" vertex="1" parent="1">
          <mxGeometry x="363" y="420" width="43" height="20" as="geometry" />
        </mxCell>
        <mxCell id="RQ_K_bz_6__OssRJ5V39-34" value="&lt;font color=&quot;#3399ff&quot;&gt;&lt;span style=&quot;font-size: 10px;&quot;&gt;C*1*W&lt;/span&gt;&lt;/font&gt;" style="text;html=1;strokeColor=none;fillColor=none;align=center;verticalAlign=middle;whiteSpace=wrap;rounded=0;shadow=0;dashed=1;fontColor=#F19C99;" vertex="1" parent="1">
          <mxGeometry x="413.5" y="420" width="43" height="20" as="geometry" />
        </mxCell>
        <mxCell id="RQ_K_bz_6__OssRJ5V39-35" value="&lt;font color=&quot;#3399ff&quot;&gt;&lt;span style=&quot;font-size: 10px;&quot;&gt;C*H*W&lt;/span&gt;&lt;/font&gt;" style="text;html=1;strokeColor=none;fillColor=none;align=center;verticalAlign=middle;whiteSpace=wrap;rounded=0;shadow=0;dashed=1;fontColor=#F19C99;" vertex="1" parent="1">
          <mxGeometry x="280" y="384" width="50" height="22" as="geometry" />
        </mxCell>
        <mxCell id="RQ_K_bz_6__OssRJ5V39-36" value="Concat" style="rounded=1;whiteSpace=wrap;html=1;fillColor=#FFD966;strokeColor=#000000;" vertex="1" parent="1">
          <mxGeometry x="490" y="200" width="80" height="30" as="geometry" />
        </mxCell>
      </root>
    </mxGraphModel>
  </diagram>
</mxfile>
